<?xml version="1.0" encoding="utf-8"?>
<!-- Generator: Adobe Illustrator 16.0.0, SVG Export Plug-In . SVG Version: 6.00 Build 0)  -->
<!DOCTYPE svg PUBLIC "-//W3C//DTD SVG 1.1//EN" "http://www.w3.org/Graphics/SVG/1.1/DTD/svg11.dtd">
<svg version="1.1" id="Capa_1" xmlns="http://www.w3.org/2000/svg" xmlns:xlink="http://www.w3.org/1999/xlink" x="0px" y="0px"
	 width="800px" height="800px" viewBox="0 0 800 800" enable-background="new 0 0 800 800" xml:space="preserve">
<g>
	<g>
		<path fill="#FFFFFF" d="M253.75,457.313c-2.897-60.992-7.245-120.03-13.035-177.108h-21.723
			c-4.602,7.498-9.545,16.352-14.823,26.575c-5.286,10.222-10.569,20.921-15.845,32.074c-5.282,11.164-10.396,22.327-15.336,33.48
			c-4.942,11.16-9.456,21.339-13.546,30.541c-4.086-9.202-8.604-19.381-13.543-30.541c-4.946-11.153-10.057-22.316-15.334-33.48
			c-5.282-11.153-10.566-21.851-15.846-32.074c-5.284-10.222-10.222-19.077-14.824-26.575H78.172
			c-1.535,12.777-2.939,26.323-4.217,40.632c-1.278,14.315-2.47,29.008-3.578,44.087c-1.11,15.079-2.087,30.413-2.941,46.007
			c-0.852,15.589-1.621,31.052-2.296,46.384h24.279c0.848-23.853,1.871-47.493,3.066-70.92c1.189-23.425,2.724-45.194,4.599-65.301
			c1.703,2.898,3.964,7.072,6.771,12.521c2.814,5.456,5.84,11.633,9.075,18.533c3.234,6.898,6.684,14.227,10.352,21.977
			c3.661,7.757,7.112,15.293,10.352,22.621c3.233,7.328,6.258,14.143,9.07,20.444c2.811,6.302,5.067,11.502,6.772,15.589v-0.001
			h19.936c1.699-4.087,3.96-9.287,6.775-15.589c2.807-6.302,5.828-13.116,9.07-20.444c3.234-7.328,6.686-14.864,10.352-22.621
			c3.662-7.75,7.108-15.079,10.35-21.977c3.233-6.9,6.259-13.077,9.071-18.533c2.814-5.449,5.067-9.623,6.772-12.521
			c1.873,20.108,3.405,41.876,4.603,65.301c1.187,23.427,2.214,47.067,3.066,70.92H253.75z"/>
		<path fill="#FFFFFF" d="M524.013,292.6c-13.377-9.456-32.5-14.185-57.375-14.185c-7.156,0-15.041,0.298-23.644,0.896
			c-8.603,0.595-16.397,1.747-23.385,3.448v174.555h24.792v-65.683h19.68c12.436,0,23.598-1.021,33.478-3.067
			c9.881-2.043,18.273-5.324,25.177-9.838c6.897-4.515,12.18-10.391,15.844-17.637c3.663-7.238,5.498-15.973,5.498-26.191
			C544.077,316.156,537.388,302.052,524.013,292.6z M514.174,352.276c-2.558,4.599-6.176,8.221-10.863,10.859
			c-4.687,2.644-10.44,4.517-17.248,5.622c-6.818,1.11-14.487,1.662-23.005,1.662h-18.655v-69.514
			c5.621-0.513,13.715-0.77,24.278-0.77c6.646,0,12.944,0.512,18.912,1.535c5.965,1.025,11.204,2.856,15.718,5.497
			c4.513,2.641,8.091,6.178,10.73,10.606c2.644,4.431,3.967,10.053,3.967,16.869C518.008,341.797,516.727,347.676,514.174,352.276z"
			/>
		<path fill="#FFFFFF" d="M656.064,340.264c-5.538-6.136-12.141-10.865-19.806-14.185c-7.668-3.324-16.017-4.986-25.046-4.986
			c-9.032,0-17.376,1.662-25.044,4.986c-7.668,3.321-14.277,8.049-19.808,14.185c-5.541,6.131-9.843,13.505-12.909,22.104
			c-3.064,8.607-4.604,18.105-4.604,28.498c0,10.564,1.539,20.105,4.604,28.625c3.066,8.522,7.368,15.842,12.909,21.979
			c5.531,6.134,12.14,10.862,19.808,14.185c7.668,3.32,16.012,4.984,25.044,4.984c9.029,0,17.378-1.664,25.046-4.984
			c7.665-3.323,14.268-8.051,19.806-14.185c5.534-6.137,9.838-13.457,12.909-21.979c3.065-8.52,4.597-18.061,4.597-28.625
			c0-10.393-1.531-19.891-4.597-28.498C665.902,353.771,661.599,346.396,656.064,340.264z M638.683,426.519
			c-6.73,8.775-15.888,13.162-27.47,13.162c-11.588,0-20.748-4.387-27.476-13.162c-6.734-8.773-10.098-20.658-10.098-35.652
			c0-14.992,3.364-26.875,10.098-35.654c6.728-8.771,15.888-13.16,27.476-13.16c11.582,0,20.74,4.389,27.47,13.16
			c6.735,8.779,10.099,20.662,10.099,35.654C648.781,405.86,645.418,417.745,638.683,426.519z"/>
		<path fill="#FFFFFF" d="M725.405,438.016c-2.556-0.762-4.604-1.912-6.134-3.449c-1.535-1.531-2.647-3.576-3.322-6.13
			c-0.685-2.559-1.024-5.79-1.024-9.714V278.415l-23.767,4.091v140.05c0,12.61,3.063,21.894,9.199,27.856
			c6.135,5.969,16.521,9.111,31.179,9.454l3.324-19.93C731.11,439.423,727.958,438.786,725.405,438.016z"/>
		<path fill="#FFFFFF" d="M381.153,331.079c-5.541-5.389-14.926-8.238-28.159-8.543l-3.003,17.997
			c3.388,0.465,6.231,1.036,8.54,1.733c2.311,0.688,4.158,1.724,5.542,3.109c1.385,1.387,2.393,3.248,3,5.558
			c0.258,0.964,0.455,2.931,0.598,4.009c-2.42,35.539-13.99,67.322-26.033,81.508c-0.045-0.008-0.097-0.012-0.142-0.018
			c-1.362,1.666-2.729,3.069-4.087,4.23c-2.662,2.188-5.301,3.446-7.816,3.595c-2.517-0.147-5.153-1.406-7.815-3.595
			c-1.359-1.161-2.726-2.564-4.088-4.23c-0.046,0.006-0.099,0.01-0.144,0.018c-12.043-14.186-23.611-45.969-26.032-81.508
			c0.143-1.078,0.34-3.045,0.598-4.009c0.608-2.31,1.614-4.171,3.001-5.558c1.384-1.386,3.229-2.422,5.54-3.109
			c2.309-0.697,5.153-1.269,8.542-1.733l-3.003-17.997c-13.235,0.305-22.619,3.154-28.161,8.543
			c-2.749,2.67-4.81,6.207-6.188,10.418c-0.938,2.854-1.54,6.032-1.852,9.453c0.078,1.566,0.184,3.151,0.301,4.745
			c2.094,28.193,10.17,60.634,23.445,82.972c-0.026,0.004-0.056,0.008-0.082,0.008c7.016,12.115,15.82,21.135,25.262,24.961
			c-2.491,32.245-21.101,47.918-51.307,49.817c-3.792-6.512-10.844-10.892-18.921-10.892c-12.09,0-21.89,9.799-21.89,21.887
			c0,12.09,9.8,21.891,21.89,21.891c8.358,0,15.62-4.688,19.307-11.577c43.825-2.257,69.479-26.55,72.278-70.733
			c9.808-3.609,18.236-12.86,25.475-25.354c-0.026,0-0.166-0.004-0.193-0.008c13.276-22.338,21.297-54.778,23.393-82.972
			c0.117-1.593,0.166-3.178,0.246-4.744c-0.313-3.421-0.914-6.6-1.853-9.453C385.961,337.286,383.904,333.749,381.153,331.079z
			 M249.626,535.097c-5.883,0-10.649-4.765-10.649-10.648c0-5.881,4.767-10.648,10.649-10.648s10.648,4.769,10.648,10.648
			C260.274,530.333,255.509,535.097,249.626,535.097z"/>
	</g>
</g>
</svg>
