<?xml version="1.0" encoding="utf-8"?>
<!-- Generator: Adobe Illustrator 16.0.0, SVG Export Plug-In . SVG Version: 6.00 Build 0)  -->
<!DOCTYPE svg PUBLIC "-//W3C//DTD SVG 1.1//EN" "http://www.w3.org/Graphics/SVG/1.1/DTD/svg11.dtd">
<svg version="1.1" id="Capa_1" xmlns="http://www.w3.org/2000/svg" xmlns:xlink="http://www.w3.org/1999/xlink" x="0px" y="0px"
	 width="800px" height="800px" viewBox="0 0 800 800" enable-background="new 0 0 800 800" xml:space="preserve">
<g>
	<g>
		<path fill="#FFFFFF" d="M253.75,409.052c-2.897-60.992-7.245-120.03-13.035-177.108h-21.723
			c-4.602,7.498-9.545,16.352-14.823,26.575c-5.286,10.222-10.569,20.921-15.845,32.074c-5.282,11.164-10.396,22.327-15.336,33.48
			c-4.942,11.16-9.456,21.339-13.546,30.541c-4.086-9.202-8.604-19.381-13.543-30.541c-4.946-11.153-10.057-22.316-15.334-33.48
			c-5.282-11.153-10.566-21.851-15.846-32.074c-5.284-10.222-10.222-19.077-14.824-26.575H78.172
			c-1.535,12.777-2.939,26.323-4.217,40.632c-1.278,14.315-2.47,29.008-3.578,44.087c-1.11,15.079-2.087,30.413-2.941,46.007
			c-0.852,15.589-1.621,31.052-2.296,46.384h24.279c0.848-23.853,1.871-47.493,3.066-70.92c1.189-23.425,2.724-45.194,4.599-65.301
			c1.703,2.898,3.964,7.072,6.771,12.521c2.814,5.456,5.84,11.633,9.075,18.533c3.234,6.898,6.684,14.227,10.352,21.977
			c3.661,7.757,7.112,15.293,10.352,22.621c3.233,7.328,6.258,14.143,9.07,20.444c2.811,6.302,5.067,11.502,6.772,15.589v-0.001
			h19.936c1.699-4.087,3.96-9.287,6.775-15.589c2.807-6.302,5.828-13.116,9.07-20.444c3.234-7.328,6.686-14.864,10.352-22.621
			c3.662-7.75,7.108-15.079,10.35-21.977c3.233-6.9,6.259-13.077,9.071-18.533c2.814-5.449,5.067-9.623,6.772-12.521
			c1.873,20.108,3.405,41.876,4.603,65.301c1.187,23.427,2.214,47.067,3.066,70.92H253.75z"/>
		<path fill="#FFFFFF" d="M524.013,244.338c-13.377-9.456-32.5-14.185-57.375-14.185c-7.156,0-15.041,0.298-23.644,0.896
			c-8.603,0.595-16.397,1.747-23.385,3.448v174.555h24.792V343.37h19.68c12.436,0,23.598-1.021,33.478-3.067
			c9.881-2.043,18.273-5.324,25.177-9.838c6.897-4.515,12.18-10.391,15.844-17.637c3.663-7.238,5.498-15.973,5.498-26.191
			C544.077,267.895,537.388,253.791,524.013,244.338z M514.174,304.015c-2.558,4.599-6.176,8.221-10.863,10.859
			c-4.687,2.644-10.44,4.517-17.248,5.622c-6.818,1.11-14.487,1.662-23.005,1.662h-18.655v-69.514
			c5.621-0.513,13.715-0.77,24.278-0.77c6.646,0,12.944,0.512,18.912,1.535c5.965,1.025,11.204,2.856,15.718,5.497
			c4.513,2.641,8.091,6.178,10.73,10.606c2.644,4.431,3.967,10.053,3.967,16.869C518.008,293.536,516.727,299.415,514.174,304.015z"
			/>
		<path fill="#FFFFFF" d="M656.064,292.002c-5.538-6.136-12.141-10.865-19.806-14.185c-7.668-3.324-16.017-4.986-25.046-4.986
			c-9.032,0-17.376,1.662-25.044,4.986c-7.668,3.321-14.277,8.049-19.808,14.185c-5.541,6.131-9.843,13.505-12.909,22.104
			c-3.064,8.607-4.604,18.105-4.604,28.498c0,10.564,1.539,20.105,4.604,28.625c3.066,8.522,7.368,15.842,12.909,21.979
			c5.531,6.134,12.14,10.862,19.808,14.185c7.668,3.32,16.012,4.984,25.044,4.984c9.029,0,17.378-1.664,25.046-4.984
			c7.665-3.323,14.268-8.051,19.806-14.185c5.534-6.137,9.838-13.457,12.909-21.979c3.065-8.52,4.597-18.061,4.597-28.625
			c0-10.393-1.531-19.891-4.597-28.498C665.902,305.509,661.599,298.135,656.064,292.002z M638.683,378.257
			c-6.73,8.775-15.888,13.162-27.47,13.162c-11.588,0-20.748-4.387-27.476-13.162c-6.734-8.773-10.098-20.658-10.098-35.652
			c0-14.992,3.364-26.875,10.098-35.654c6.728-8.771,15.888-13.16,27.476-13.16c11.582,0,20.74,4.389,27.47,13.16
			c6.735,8.779,10.099,20.662,10.099,35.654C648.781,357.599,645.418,369.483,638.683,378.257z"/>
		<path fill="#FFFFFF" d="M725.405,389.754c-2.556-0.762-4.604-1.912-6.134-3.449c-1.535-1.531-2.647-3.576-3.322-6.13
			c-0.685-2.559-1.024-5.79-1.024-9.714V230.153l-23.767,4.091v140.05c0,12.61,3.063,21.894,9.199,27.856
			c6.135,5.969,16.521,9.111,31.179,9.454l3.324-19.93C731.11,391.161,727.958,390.524,725.405,389.754z"/>
		<path fill="#FFFFFF" d="M381.153,282.817c-5.541-5.389-14.926-8.238-28.159-8.543l-3.003,17.997
			c3.388,0.465,6.231,1.036,8.54,1.733c2.311,0.688,4.158,1.724,5.542,3.109c1.385,1.387,2.393,3.248,3,5.558
			c0.258,0.964,0.455,2.931,0.598,4.009c-2.42,35.539-13.99,67.322-26.033,81.508c-0.045-0.008-0.097-0.012-0.142-0.018
			c-1.362,1.666-2.729,3.069-4.087,4.23c-2.662,2.188-5.301,3.446-7.816,3.595c-2.517-0.147-5.153-1.406-7.815-3.595
			c-1.359-1.161-2.726-2.564-4.088-4.23c-0.046,0.006-0.099,0.01-0.144,0.018c-12.043-14.186-23.611-45.969-26.032-81.508
			c0.143-1.078,0.34-3.045,0.598-4.009c0.608-2.31,1.614-4.171,3.001-5.558c1.384-1.386,3.229-2.422,5.54-3.109
			c2.309-0.697,5.153-1.269,8.542-1.733l-3.003-17.997c-13.235,0.305-22.619,3.154-28.161,8.543
			c-2.749,2.67-4.81,6.207-6.188,10.418c-0.938,2.854-1.54,6.032-1.852,9.453c0.078,1.566,0.184,3.151,0.301,4.745
			c2.094,28.193,10.17,60.634,23.445,82.972c-0.026,0.004-0.056,0.008-0.082,0.008c7.016,12.115,15.82,21.135,25.262,24.961
			c-2.491,32.245-21.101,47.918-51.307,49.817c-3.792-6.512-10.844-10.892-18.921-10.892c-12.09,0-21.89,9.799-21.89,21.887
			c0,12.09,9.8,21.891,21.89,21.891c8.358,0,15.62-4.688,19.307-11.577c43.825-2.257,69.479-26.55,72.278-70.733
			c9.808-3.609,18.236-12.86,25.475-25.354c-0.026,0-0.166-0.004-0.193-0.008c13.276-22.338,21.297-54.778,23.393-82.972
			c0.117-1.593,0.166-3.178,0.246-4.744c-0.313-3.421-0.914-6.6-1.853-9.453C385.961,289.024,383.904,285.487,381.153,282.817z
			 M249.626,486.835c-5.883,0-10.649-4.765-10.649-10.648c0-5.881,4.767-10.648,10.649-10.648s10.648,4.769,10.648,10.648
			C260.274,482.071,255.509,486.835,249.626,486.835z"/>
	</g>
	<g>
		<path fill="#FFFFFF" d="M106.207,535.585l-12.79,17.758c-0.286,0.457-0.742,0.629-1.142,0.629h-0.114
			c-0.515,0-0.914-0.172-1.199-0.629l-12.79-17.701v32.832c0,0.742-0.628,1.371-1.37,1.371c-0.799,0-1.427-0.629-1.427-1.371v-37
			c0-0.457,0.228-0.855,0.571-1.084c0-0.057,0.057-0.057,0.113-0.115c0.628-0.397,1.484-0.285,1.941,0.344l14.217,19.699
			l14.161-19.699c0.399-0.629,1.313-0.741,1.941-0.344c0.171,0.172,0.286,0.285,0.399,0.457c0.114,0.229,0.229,0.514,0.229,0.742v37
			c0,0.742-0.628,1.371-1.371,1.371c-0.799,0-1.37-0.629-1.37-1.371L106.207,535.585L106.207,535.585z"/>
		<path fill="#FFFFFF" d="M128.701,534.101c0-0.742,0.628-1.371,1.371-1.371c0.799,0,1.427,0.629,1.427,1.371v1.313
			c0,0.802-0.628,1.486-1.427,1.486c-0.743,0-1.371-0.686-1.371-1.486V534.101z M128.701,543.237c0-0.801,0.628-1.371,1.371-1.371
			c0.799,0,1.427,0.57,1.427,1.371v25.236c0,0.742-0.628,1.371-1.427,1.371c-0.743,0-1.371-0.629-1.371-1.371V543.237z"/>
		<path fill="#FFFFFF" d="M173.864,531.245c0-0.741,0.628-1.369,1.37-1.369h0.171h11.134c6.281,0,11.362,5.14,11.362,11.421
			c0,6.278-5.082,11.36-11.362,11.36l-9.878,0.115v15.701c0,0.742-0.628,1.371-1.427,1.371c-0.742,0-1.37-0.629-1.37-1.371V531.245z
			 M186.54,549.974c4.739-0.057,8.622-3.939,8.622-8.678c0-4.74-3.883-8.623-8.622-8.623h-9.878v17.301H186.54L186.54,549.974z"/>
		<path fill="#FFFFFF" d="M212.233,543.294c0-0.802,0.628-1.371,1.428-1.371c0.685,0,1.313,0.569,1.313,1.371v6.166
			c0.114-0.229,0.229-0.457,0.4-0.687c2.112-3.311,5.824-6.852,11.191-6.852c0.742,0,1.37,0.569,1.37,1.371
			c0,0.741-0.628,1.368-1.37,1.368c-3.654,0-6.167,2.058-8.108,4.568c-1.884,2.512-2.969,5.367-3.369,6.51
			c-0.114,0.229-0.114,0.342-0.114,0.457v12.275c0,0.799-0.628,1.371-1.313,1.371c-0.799,0-1.428-0.572-1.428-1.371V543.294z"/>
		<path fill="#FFFFFF" d="M238.155,555.913c0-7.766,6.053-14.047,13.59-14.047c7.194,0,12.904,5.709,13.475,13.019v0.059v0.17
			c0,0.742-0.628,1.256-1.37,1.256h-22.954c0.286,6.111,5.082,10.734,10.85,10.734c3.711,0,7.137-1.939,9.021-5.08
			c0.399-0.686,1.257-0.801,1.827-0.457c0.628,0.457,0.856,1.256,0.456,1.941c-2.396,3.823-6.565,6.338-11.305,6.338
			C244.208,569.845,238.155,563.563,238.155,555.913z M241.067,553.685h21.184c-0.914-5.252-5.367-9.078-10.506-9.078
			C246.492,544.606,242.095,548.376,241.067,553.685z"/>
		<path fill="#FFFFFF" d="M278.694,564.021c0.457-0.572,1.313-0.686,1.94-0.172c1.941,1.428,5.024,3.254,8.564,3.254
			c2.17,0,4.054-0.684,5.311-1.713c1.37-0.912,2.112-2.168,2.112-3.426c-0.058-1.313-0.571-2.228-1.999-3.427
			c-1.199-0.911-3.197-1.598-5.938-2.055l-0.113-0.057c-2.514-0.457-4.739-1.029-6.339-2.17c-1.771-1.027-3.025-2.855-3.025-5.025
			c0-2.227,1.256-4.168,3.025-5.479c1.655-1.144,3.998-1.886,6.853-1.886c3.597,0,6.167,1.656,8.337,3.025
			c0.627,0.457,0.799,1.313,0.398,1.94c-0.398,0.63-1.256,0.802-1.885,0.4c-2.056-1.371-4.109-2.799-6.852-2.799
			c-2.284,0-4.111,0.629-5.31,1.6c-1.144,0.914-1.771,2.056-1.771,3.197s0.514,1.941,1.599,2.799
			c1.257,0.855,3.142,1.541,5.711,1.941h0.113c2.685,0.397,4.854,1.199,6.795,2.283c1.826,1.198,3.142,3.368,3.142,5.709
			c0,2.342-1.314,4.227-3.198,5.653c-1.941,1.427-4.226,2.228-6.966,2.228c-4.511-0.058-8.051-2.17-10.335-3.998
			C278.294,565.333,278.237,564.591,278.694,564.021z"/>
		<path fill="#FFFFFF" d="M325.055,543.237c0,0.685-0.686,1.369-1.37,1.369h-3.597v20.385c0,1.369,1.369,2.056,2.055,2.056
			c0.687,0,1.429,0.741,1.429,1.428c0,0.686-0.742,1.371-1.429,1.371c-2.797,0-4.909-2.058-4.909-4.854v-20.385h-3.482
			c-1.371,0-1.371-0.686-1.371-1.369c0-0.686,0-1.371,1.371-1.371h3.482v-10.393c0-0.687,0.686-1.369,1.37-1.369
			c0.742,0,1.484,0.684,1.484,1.369v10.393h3.597C324.37,541.866,325.055,542.552,325.055,543.237z"/>
		<path fill="#FFFFFF" d="M365.595,543.237v25.236c0,0.742-0.629,1.371-1.371,1.371c-0.741,0-1.37-0.629-1.37-1.371v-4.168
			c-2.396,3.313-6.224,5.539-10.506,5.539c-7.365,0-13.247-6.338-13.247-13.99c0-7.65,5.882-13.988,13.247-13.988
			c4.282,0,8.108,2.17,10.506,5.48v-4.109c0-0.801,0.629-1.371,1.37-1.371C364.966,541.866,365.595,542.437,365.595,543.237z
			 M362.853,555.854c0-6.279-4.738-11.305-10.506-11.305c-5.71,0-10.506,5.024-10.506,11.305c0,6.281,4.796,11.248,10.506,11.248
			C358.114,567.103,362.853,562.136,362.853,555.854z"/>
		<path fill="#FFFFFF" d="M405.561,564.419c-2.454,3.313-6.338,5.426-10.733,5.426c-7.537,0-13.532-6.281-13.532-13.933
			c0-7.766,5.995-14.047,13.532-14.047c4.396,0,8.279,2.17,10.733,5.48v-16.103c0-0.741,0.63-1.369,1.429-1.369
			c0.742,0,1.371,0.628,1.371,1.369v24.097v0.571v12.562c0,0.742-0.629,1.371-1.371,1.371c-0.799,0-1.429-0.629-1.429-1.371V564.419
			z M405.561,556.368v-0.912c-0.229-5.995-4.967-10.793-10.733-10.793c-5.881,0-10.734,5.025-10.734,11.25
			c0,6.166,4.854,11.134,10.734,11.134C400.595,567.046,405.333,562.308,405.561,556.368z"/>
		<path fill="#FFFFFF" d="M438.506,541.866c7.365,0,13.246,6.396,13.246,13.988s-5.881,13.99-13.246,13.99
			c-7.309,0-13.247-6.396-13.247-13.99S431.197,541.866,438.506,541.866z M438.506,567.103c5.709,0,10.507-5.023,10.507-11.248
			c0-6.223-4.798-11.305-10.507-11.305c-5.71,0-10.507,5.082-10.507,11.305C427.999,562.079,432.796,567.103,438.506,567.103z"/>
		<path fill="#FFFFFF" d="M466.826,543.294c0-0.802,0.628-1.371,1.427-1.371c0.687,0,1.313,0.569,1.313,1.371v6.166
			c0.114-0.229,0.229-0.457,0.398-0.687c2.113-3.311,5.824-6.852,11.191-6.852c0.742,0,1.37,0.569,1.37,1.371
			c0,0.741-0.628,1.368-1.37,1.368c-3.654,0-6.166,2.058-8.107,4.568c-1.885,2.512-2.97,5.367-3.368,6.51
			c-0.114,0.229-0.114,0.342-0.114,0.457v12.275c0,0.799-0.628,1.371-1.313,1.371c-0.799,0-1.427-0.572-1.427-1.371V543.294z"/>
		<path fill="#FFFFFF" d="M538.597,529.304c10.677,0,19.069,9.08,19.127,20.271c-0.058,11.189-8.45,20.271-19.127,20.271
			c-10.793,0-19.242-9.08-19.301-20.271C519.354,538.384,527.804,529.304,538.597,529.304z M538.597,567.046
			c8.793,0,16.216-7.707,16.271-17.472c-0.057-9.879-7.479-17.416-16.271-17.416c-9.079,0-16.502,7.537-16.502,17.416
			C522.095,559.339,529.517,567.046,538.597,567.046z"/>
		<path fill="#FFFFFF" d="M594.665,553.286c0-4.739-3.826-8.623-8.622-8.623c-4.739,0-8.563,3.884-8.679,8.623v15.188v0.229
			c-0.059,0.229-0.114,0.457-0.286,0.63c-0.229,0.342-0.628,0.514-1.027,0.514h-0.343c-0.398-0.115-0.742-0.4-0.913-0.742
			c-0.058-0.059-0.058-0.115-0.058-0.172s-0.057-0.113-0.057-0.113v-0.344v-15.188v-0.456v-9.535c0-0.742,0.569-1.371,1.369-1.371
			c0.742,0,1.313,0.629,1.313,1.371v2.684c2.056-2.455,5.194-4.055,8.679-4.055c6.28,0,11.362,5.139,11.362,11.363v15.188
			c0,0.799-0.628,1.371-1.37,1.371s-1.37-0.572-1.37-1.371L594.665,553.286L594.665,553.286z"/>
		<path fill="#FFFFFF" d="M615.79,531.245c0-0.741,0.628-1.369,1.37-1.369c0.8,0,1.428,0.628,1.428,1.369v37.229
			c0,0.742-0.628,1.371-1.428,1.371c-0.742,0-1.37-0.629-1.37-1.371V531.245z"/>
		<path fill="#FFFFFF" d="M635.373,534.101c0-0.742,0.628-1.371,1.37-1.371c0.8,0,1.428,0.629,1.428,1.371v1.313
			c0,0.802-0.628,1.486-1.428,1.486c-0.742,0-1.37-0.686-1.37-1.486V534.101z M635.373,543.237c0-0.801,0.628-1.371,1.37-1.371
			c0.8,0,1.428,0.57,1.428,1.371v25.236c0,0.742-0.628,1.371-1.428,1.371c-0.742,0-1.37-0.629-1.37-1.371V543.237z"/>
		<path fill="#FFFFFF" d="M677.056,553.286c0-4.739-3.826-8.623-8.623-8.623c-4.738,0-8.563,3.884-8.679,8.623v15.188v0.229
			c-0.058,0.229-0.114,0.457-0.286,0.63c-0.229,0.342-0.628,0.514-1.026,0.514h-0.343c-0.399-0.115-0.742-0.4-0.914-0.742
			c-0.058-0.059-0.058-0.115-0.058-0.172s-0.057-0.113-0.057-0.113v-0.344v-15.188v-0.456v-9.535c0-0.742,0.569-1.371,1.37-1.371
			c0.742,0,1.313,0.629,1.313,1.371v2.684c2.055-2.455,5.195-4.055,8.68-4.055c6.279,0,11.361,5.139,11.361,11.363v15.188
			c0,0.799-0.628,1.371-1.37,1.371c-0.741,0-1.37-0.572-1.37-1.371v-15.189H677.056z"/>
		<path fill="#FFFFFF" d="M695.781,555.913c0-7.766,6.053-14.047,13.59-14.047c7.194,0,12.904,5.709,13.476,13.019v0.059v0.17
			c0,0.742-0.629,1.256-1.37,1.256h-22.953c0.284,6.111,5.081,10.734,10.849,10.734c3.711,0,7.137-1.939,9.021-5.08
			c0.398-0.686,1.256-0.801,1.826-0.457c0.629,0.457,0.856,1.256,0.457,1.941c-2.397,3.823-6.565,6.338-11.306,6.338
			C701.834,569.845,695.781,563.563,695.781,555.913z M698.693,553.685h21.184c-0.914-5.252-5.366-9.078-10.506-9.078
			C704.118,544.606,699.722,548.376,698.693,553.685z"/>
	</g>
</g>
</svg>
